<svg xmlns="http://www.w3.org/2000/svg" viewBox="0 0 327.6 90.62"><defs>
<style>
.cls-1{fill:none;stroke:#000;stroke-miterlimit:10;stroke-width:6px;}
.cls-2{fill: #000;}
@media (prefers-color-scheme: dark) {
        .cls-1{
          stroke: white;
        }
        .cls-2{
        fill: white;
        }
      }
</style>
</defs>
<g id="Capa_2" data-name="Capa 2">
  <g id="Capa_1-2" data-name="Capa 1" class="cls-2">
    <path d="M78.51,48.53V2.16h33.27V9.72H88.23V21.6h20.88v7.49H88.23V41h23.55v7.49Z"/>
    <path d="M128.05,49.25c-6.71,0-9.47-3-9.5-9.65V0h9.72V38.81c-.38,3.88,3.79,3.43,6.19,2.66v6.7A17.42,17.42,0,0,1,128.05,49.25Z"/><path d="M144.25,61.2a19.15,19.15,0,0,1-7.34-1.15V53.21c5.42,1.89,9.91.35,12.24-5.26L133.88,14.4H144l10,23.18L164,14.4h10.08C167.48,25.21,160.2,62.48,144.25,61.2Z"/><path d="M188.24,49.25a40.86,40.86,0,0,1-12.81-1.87V39.31c3.25,2.18,24.94,4.3,15.8-2.81-3.21-1.14-11.36-3.33-13.93-6-10.56-15.32,11.75-19.72,23.25-15.2v8c-2.84-2.36-21.87-3.4-13.93,2.66,4.41,1.67,13.57,3.08,15.81,8C205.72,42.87,200.68,49.63,188.24,49.25Z"/>
    <path d="M213.3,48.53V21.6h-5.12l.87-7.2h14V48.53Zm-.8-40.39V.5h10.59V8.14Z"/>
    <path d="M243.9,49.25c-18.13,1-12-23.84-13-34.85h9.72c.63,3.74-1.61,23.67,1.65,26.17,3.46,3,10.27,1.3,13.25-2V14.4h9.72V48.53h-9l-.36-3.24A18.44,18.44,0,0,1,243.9,49.25Z"/><path d="M273.56,48.53V14.4h9l.36,3.31c5.3-4.19,16.35-6.73,20.3.15,5.17-4.41,16.44-6.27,21.39-1.12,5,4.55,2.08,25.51,2.81,31.79h-9.58c-.56-3.6,1.42-23.76-1.44-26.25-2.94-2.7-9.24-1.51-11.81,1.62.73,1.16.22,22.8.36,24.63h-9.07V27.14c.89-8.45-8.8-7.3-12.74-2.66V48.53Z"/><path d="M169.23,82.94l5.89-27.89h18.23L193,57H177.11l-2.34,11h14.34L188.68,70H174.34L172,81h15.85l-.39,1.91Z"/>
    <path d="M192.7,82.94,197,62.41h2.08l-.3,2.51c3.45-2.66,10.72-4.57,14-1.14,2.76,2.89-2,15.57-2.19,19.16h-2.38c.31-2.34,3.53-14.67,3.12-16.74-1.87-4.48-10-1.65-12.91.76l-3.38,16Z"/><path d="M224.36,90.56a29.55,29.55,0,0,1-4.85-.43l.43-2.08c5.92,1.7,13.15-.21,13.25-7.23-25.3,12.5-14.67-30.53,3.6-16.07l.69-2.34h2C236.58,70.65,238,92,224.36,90.56ZM226.7,81a11.14,11.14,0,0,0,6.92-2.29l2.56-12C225.13,54.9,212.21,81.32,226.7,81Z"/><path d="M242.76,82.94l3.9-18.53h-3.21l.7-2h5.32l-4.33,20.53Zm5.15-25.85.57-2.6h2.73l-.57,2.6Z"/>
    <path d="M251.68,82.94,256,62.41h2.08l-.3,2.51c3.45-2.66,10.72-4.57,14-1.14,2.76,2.89-2,15.57-2.19,19.16h-2.38c.31-2.34,3.53-14.67,3.12-16.74-1.87-4.48-10-1.65-12.91.76l-3.38,16Z"/><path d="M285.07,83.37c-11.8,1.18-9.86-12.84-4.42-18.58,8.2-6.13,18.15-2.72,13.82,9.14H278.88c-2.39,8.27,7.21,8.57,12.86,6.41l-.39,2A17.89,17.89,0,0,1,285.07,83.37Zm-5.81-11.3h13.43C296.94,60,279.88,62.17,279.26,72.07Z"/><rect class="cls-1" x="3" y="27.08" width="48.44" height="48.44"/><rect class="cls-1" x="18.96" y="5.61" width="48.44" height="48.44"/></g></g></svg>
